<?xml version="1.0" encoding="UTF-8"?>
<svg width="1111px" height="823px" viewBox="0 0 1111 823" version="1.1" xmlns="http://www.w3.org/2000/svg" xmlns:xlink="http://www.w3.org/1999/xlink">
    <!-- Generator: Sketch 55.2 (78181) - https://sketchapp.com -->
    <title>a</title>
    <desc>Created with Sketch.</desc>
    <defs>
        <linearGradient x1="0%" y1="77.4373117%" x2="100%" y2="22.5626883%" id="linearGradient-1">
            <stop stop-color="#E3222C" offset="0%"></stop>
            <stop stop-color="#28AAE2" offset="100%"></stop>
        </linearGradient>
        <path d="M202.977884,3.02187736 C197.743574,7.97635071 192.392176,12.8200039 187.389378,18.0096323 L187.389378,18.0096323 C178.569286,27.1577038 169.64009,36.235499 161.369507,45.8849643 L161.369507,45.8849643 C151.814961,57.0305022 142.853832,68.707166 133.764972,80.259495 L133.764972,80.259495 C125.238927,91.0941958 116.901818,102.081612 108.414358,112.947397 L108.414358,112.947397 C107.737117,113.815038 106.604835,114.404277 105.577665,114.888101 L105.577665,114.888101 C101.900076,116.615275 97.6117736,117.538326 94.5821537,120.045295 L94.5821537,120.045295 C87.199035,126.148514 81.7651449,134.237036 78.7115754,143.228338 L78.7115754,143.228338 C74.1771244,156.583522 66.4507287,168.043951 58.9917698,179.534113 L58.9917698,179.534113 C50.9580213,191.90543 41.4606883,203.336127 32.1576129,214.804665 L32.1576129,214.804665 C24.88892,223.763532 16.9735888,232.18046 9.28045637,240.777134 L9.28045637,240.777134 C6.27877758,244.134175 3.09880758,247.324985 0,250.592829 L0,250.592829 C0.234173523,250.834742 0.467016514,251.075302 0.701190037,251.317215 L0.701190037,251.317215 C33.7010293,231.629062 58.8600472,203.167194 84.1108717,174.244476 L84.1108717,174.244476 C76.1622772,255.836516 59.3643186,335.906806 43.4152389,416.251443 L43.4152389,416.251443 C66.1367233,362.156325 84.1827204,306.216456 103.926476,250.736085 L103.926476,250.736085 C104.871153,252.048358 105.295592,253.341711 105.698743,254.643172 L105.698743,254.643172 C107.879484,261.684308 109.559945,268.940328 112.379341,275.705765 L112.379341,275.705765 C114.981861,281.946834 118.780528,287.677049 122.101534,293.603226 L122.101534,293.603226 C127.225411,302.745892 133.65986,310.791167 142.035555,317.038993 L142.035555,317.038993 C146.1775,320.129795 150.677357,322.724609 155.014889,325.545118 L155.014889,325.545118 C153.812089,322.569191 151.866852,320.540641 150.568253,318.148546 L150.568253,318.148546 C142.957614,304.132495 136.477926,289.685327 133.791583,273.704245 L133.791583,273.704245 C131.340744,259.123281 128.182063,244.661246 125.956084,230.05055 L125.956084,230.05055 C123.755385,215.618248 121.820792,201.103506 120.68851,186.553626 L120.68851,186.553626 C119.022685,165.127488 122.024363,144.270318 129.555171,124.040227 L129.555171,124.040227 C136.725405,104.783192 146.40369,86.8587022 156.626162,69.2018025 L156.626162,69.2018025 C166.537291,52.0868405 178.438894,36.3922691 190.771589,21.0328611 L190.771589,21.0328611 C196.197496,14.274181 201.709888,7.58712858 207.183694,0.867640996 L207.183694,0.867640996 C205.34623,1.13523121 204.074242,1.98260022 202.977884,3.02187736" id="path-2"></path>
        <path d="M41.0356768,3.96437579 C35.416706,7.07430178 29.1786278,9.04767393 23.1889983,11.4618337 L23.1889983,11.4618337 C15.6307842,14.5107275 8.05108268,17.5026581 0.483467851,20.5176452 L0.483467851,20.5176452 C0.550616164,20.7387171 0.619107442,20.9611453 0.688941688,21.1835735 L0.688941688,21.1835735 C7.57164373,21.1835735 14.4556887,21.2025613 21.3383908,21.1618732 L21.3383908,21.1618732 C22.2301204,21.1550919 23.1809405,20.9828456 24.0041788,20.6410657 L24.0041788,20.6410657 C37.2431401,15.1603806 50.4713577,9.65257013 63.6874886,4.11356544 L63.6874886,4.11356544 C65.7543137,3.24690922 67.7459326,2.19851288 69.7724687,1.23556153 L69.7724687,1.23556153 C65.6092733,0.50181972 61.7643609,0.649653097 57.9342212,0.467912982 L57.9342212,0.467912982 C57.183503,0.432649975 56.4394997,0.413662202 55.7008683,0.413662202 L55.7008683,0.413662202 C50.5949106,0.413662202 45.7951492,1.32778785 41.0356768,3.96437579" id="path-4"></path>
        <path d="M0.749554231,12.8917506 C0.840532734,18.6850071 7.33395363,24.5889456 13.6685016,24.6388875 L13.6685016,24.6388875 C20.6643411,24.6915289 27.5963599,18.8672274 27.1075201,12.7864677 L27.1075201,12.7864677 C26.5765859,6.18874215 21.8511353,1.5805926 13.955016,0.853061077 L13.955016,0.853061077 C13.724175,0.831464595 13.493334,0.820666353 13.2611352,0.820666353 L13.2611352,0.820666353 C7.36925872,0.822016133 0.665365169,7.44808707 0.749554231,12.8917506" id="path-6"></path>
        <polygon id="path-8" points="12.1799139 0.0416149865 8.85251754 9.45823532 0.22867292 12.0438604 6.54661816 15.4751401 2.414074 25.5283029 10.851694 17.2782387 18.4718425 19.6810551 15.6675183 12.4975942 22.8070429 5.27599333 14.181829 7.86030324 12.1812832 0.0416149865"></polygon>
    </defs>
    <g id="a" stroke="none" stroke-width="1" fill="none" fill-rule="evenodd">
        <rect id="Rectangle" fill="url(#linearGradient-1)" x="0" y="0" width="1111" height="823"></rect>
        <g id="Logo" transform="translate(435.000000, 134.076923)">
            <g id="Group-13" transform="translate(0.000000, 0.923077)">
                <g id="Group-3" transform="translate(0.301011, 30.564091)">
                    <mask id="mask-3" fill="white">
                        <use xlink:href="#path-2"></use>
                    </mask>
                    <g id="Clip-2"></g>
                    <path d="M202.977884,3.02187736 C197.743574,7.97635071 192.392176,12.8200039 187.389378,18.0096323 L187.389378,18.0096323 C178.569286,27.1577038 169.64009,36.235499 161.369507,45.8849643 L161.369507,45.8849643 C151.814961,57.0305022 142.853832,68.707166 133.764972,80.259495 L133.764972,80.259495 C125.238927,91.0941958 116.901818,102.081612 108.414358,112.947397 L108.414358,112.947397 C107.737117,113.815038 106.604835,114.404277 105.577665,114.888101 L105.577665,114.888101 C101.900076,116.615275 97.6117736,117.538326 94.5821537,120.045295 L94.5821537,120.045295 C87.199035,126.148514 81.7651449,134.237036 78.7115754,143.228338 L78.7115754,143.228338 C74.1771244,156.583522 66.4507287,168.043951 58.9917698,179.534113 L58.9917698,179.534113 C50.9580213,191.90543 41.4606883,203.336127 32.1576129,214.804665 L32.1576129,214.804665 C24.88892,223.763532 16.9735888,232.18046 9.28045637,240.777134 L9.28045637,240.777134 C6.27877758,244.134175 3.09880758,247.324985 0,250.592829 L0,250.592829 C0.234173523,250.834742 0.467016514,251.075302 0.701190037,251.317215 L0.701190037,251.317215 C33.7010293,231.629062 58.8600472,203.167194 84.1108717,174.244476 L84.1108717,174.244476 C76.1622772,255.836516 59.3643186,335.906806 43.4152389,416.251443 L43.4152389,416.251443 C66.1367233,362.156325 84.1827204,306.216456 103.926476,250.736085 L103.926476,250.736085 C104.871153,252.048358 105.295592,253.341711 105.698743,254.643172 L105.698743,254.643172 C107.879484,261.684308 109.559945,268.940328 112.379341,275.705765 L112.379341,275.705765 C114.981861,281.946834 118.780528,287.677049 122.101534,293.603226 L122.101534,293.603226 C127.225411,302.745892 133.65986,310.791167 142.035555,317.038993 L142.035555,317.038993 C146.1775,320.129795 150.677357,322.724609 155.014889,325.545118 L155.014889,325.545118 C153.812089,322.569191 151.866852,320.540641 150.568253,318.148546 L150.568253,318.148546 C142.957614,304.132495 136.477926,289.685327 133.791583,273.704245 L133.791583,273.704245 C131.340744,259.123281 128.182063,244.661246 125.956084,230.05055 L125.956084,230.05055 C123.755385,215.618248 121.820792,201.103506 120.68851,186.553626 L120.68851,186.553626 C119.022685,165.127488 122.024363,144.270318 129.555171,124.040227 L129.555171,124.040227 C136.725405,104.783192 146.40369,86.8587022 156.626162,69.2018025 L156.626162,69.2018025 C166.537291,52.0868405 178.438894,36.3922691 190.771589,21.0328611 L190.771589,21.0328611 C196.197496,14.274181 201.709888,7.58712858 207.183694,0.867640996 L207.183694,0.867640996 C205.34623,1.13523121 204.074242,1.98260022 202.977884,3.02187736" id="Fill-1" fill="#FFFFFF" mask="url(#mask-3)"></path>
                </g>
                <g id="Group-6" transform="translate(39.097814, 77.910226)">
                    <mask id="mask-5" fill="white">
                        <use xlink:href="#path-4"></use>
                    </mask>
                    <g id="Clip-5"></g>
                    <path d="M41.0356768,3.96437579 C35.416706,7.07430178 29.1786278,9.04767393 23.1889983,11.4618337 L23.1889983,11.4618337 C15.6307842,14.5107275 8.05108268,17.5026581 0.483467851,20.5176452 L0.483467851,20.5176452 C0.550616164,20.7387171 0.619107442,20.9611453 0.688941688,21.1835735 L0.688941688,21.1835735 C7.57164373,21.1835735 14.4556887,21.2025613 21.3383908,21.1618732 L21.3383908,21.1618732 C22.2301204,21.1550919 23.1809405,20.9828456 24.0041788,20.6410657 L24.0041788,20.6410657 C37.2431401,15.1603806 50.4713577,9.65257013 63.6874886,4.11356544 L63.6874886,4.11356544 C65.7543137,3.24690922 67.7459326,2.19851288 69.7724687,1.23556153 L69.7724687,1.23556153 C65.6092733,0.50181972 61.7643609,0.649653097 57.9342212,0.467912982 L57.9342212,0.467912982 C57.183503,0.432649975 56.4394997,0.413662202 55.7008683,0.413662202 L55.7008683,0.413662202 C50.5949106,0.413662202 45.7951492,1.32778785 41.0356768,3.96437579" id="Fill-4" fill="#FFFFFF" mask="url(#mask-5)"></path>
                </g>
                <g id="Group-9" transform="translate(77.894617, 109.474317)">
                    <mask id="mask-7" fill="white">
                        <use xlink:href="#path-6"></use>
                    </mask>
                    <g id="Clip-8"></g>
                    <path d="M0.749554231,12.8917506 C0.840532734,18.6850071 7.33395363,24.5889456 13.6685016,24.6388875 L13.6685016,24.6388875 C20.6643411,24.6915289 27.5963599,18.8672274 27.1075201,12.7864677 L27.1075201,12.7864677 C26.5765859,6.18874215 21.8511353,1.5805926 13.955016,0.853061077 L13.955016,0.853061077 C13.724175,0.831464595 13.493334,0.820666353 13.2611352,0.820666353 L13.2611352,0.820666353 C7.36925872,0.822016133 0.665365169,7.44808707 0.749554231,12.8917506" id="Fill-7" fill="#FFFFFF" mask="url(#mask-7)"></path>
                </g>
                <g id="Group-12" transform="translate(213.683427, 0.000000)">
                    <mask id="mask-9" fill="white">
                        <use xlink:href="#path-8"></use>
                    </mask>
                    <g id="Clip-11"></g>
                    <polygon id="Fill-10" fill="#FFFFFF" mask="url(#mask-9)" points="12.1799139 0.0416149865 8.85251754 9.45823532 0.22867292 12.0438604 6.54661816 15.4751401 2.414074 25.5283029 10.851694 17.2782387 18.4718425 19.6810551 15.6675183 12.4975942 22.8070429 5.27599333 14.181829 7.86030324 12.1812832 0.0416149865"></polygon>
                </g>
            </g>
        </g>
    </g>
</svg>